<?xml version="1.0" standalone="no"?>
<!DOCTYPE svg PUBLIC "-//W3C//DTD SVG 20010904//EN"
 "http://www.w3.org/TR/2001/REC-SVG-20010904/DTD/svg10.dtd">
<svg version="1.0" xmlns="http://www.w3.org/2000/svg"
 width="439.000000pt" height="439.000000pt" viewBox="0 0 439.000000 439.000000"
 preserveAspectRatio="xMidYMid meet">
<metadata>
Created by potrace 1.14, written by Peter Selinger 2001-2017
</metadata>
<g transform="translate(0.000000,439.000000) scale(0.100000,-0.100000)"
fill="#000000" stroke="none">
<path d="M3120 4030 c-14 -3 -37 -5 -52 -4 -19 2 -33 -4 -43 -19 -8 -12 -15
-18 -15 -13 0 4 -14 -6 -31 -23 -17 -17 -35 -31 -40 -31 -6 0 -7 -4 -4 -10 3
-5 2 -10 -4 -10 -5 0 -19 -20 -31 -44 -11 -24 -28 -47 -37 -50 -9 -4 -13 -9
-10 -12 3 -4 -3 -14 -13 -23 -11 -9 -32 -42 -48 -73 -16 -32 -31 -55 -35 -52
-3 3 -8 -3 -11 -14 -4 -11 -14 -23 -22 -26 -8 -3 -13 -10 -9 -15 5 -9 -32 -27
-47 -23 -5 1 -8 -2 -8 -8 0 -5 -6 -8 -12 -6 -7 3 -26 7 -41 10 -15 4 -26 10
-23 14 2 4 -6 9 -19 10 -21 1 -26 -3 -36 -33 -1 -5 -11 -19 -21 -29 -10 -11
-18 -23 -18 -28 0 -10 -52 -37 -82 -42 -13 -3 -24 -5 -25 -7 -4 -2 -21 -6 -36
-8 -7 0 -23 -10 -34 -21 -18 -16 -22 -17 -27 -4 -3 9 -11 12 -18 8 -13 -8 -89
-5 -185 8 -7 1 -13 7 -13 15 0 7 -7 13 -16 13 -8 0 -12 5 -8 11 4 8 -5 9 -32
4 -22 -3 -63 -7 -91 -8 -29 -1 -53 -6 -53 -12 0 -6 -3 -7 -8 0 -4 6 -16 11
-27 12 -45 5 -74 11 -84 18 -6 3 -21 8 -33 10 -13 3 -24 9 -26 15 -2 5 -10 10
-17 10 -7 0 -15 3 -17 8 -4 9 -102 72 -112 72 -5 0 -21 9 -37 21 -16 11 -29
17 -29 13 0 -4 -8 0 -17 8 -57 48 -164 67 -210 37 -13 -9 -24 -19 -24 -23 3
-19 0 -27 -8 -22 -8 6 -7 -68 4 -159 2 -22 6 -56 8 -75 2 -19 8 -44 14 -55 6
-11 13 -42 17 -70 12 -88 28 -131 57 -150 15 -11 25 -25 22 -32 -3 -7 0 -13 7
-13 6 0 8 -4 5 -10 -3 -5 -1 -10 6 -10 9 0 9 -3 0 -14 -8 -10 -9 -16 -1 -21 6
-3 8 -10 5 -14 -4 -8 11 -47 36 -93 26 -49 0 -128 -51 -157 -20 -11 -39 -18
-42 -16 -3 3 -16 -5 -29 -17 -14 -13 -31 -23 -38 -23 -8 0 -22 -15 -32 -32
-10 -18 -16 -33 -13 -33 4 0 1 -7 -6 -15 -6 -8 -9 -19 -5 -25 3 -5 1 -10 -6
-10 -7 0 -10 -3 -6 -6 3 -3 -5 -27 -18 -52 -13 -26 -21 -50 -19 -54 3 -4 0 -8
-6 -8 -6 0 -8 -4 -5 -10 3 -6 1 -10 -5 -10 -6 0 -8 -5 -5 -10 6 -9 -22 -40
-89 -97 -14 -13 -29 -23 -31 -23 -3 0 -14 -8 -25 -18 -10 -10 -42 -29 -69 -42
-28 -14 -51 -28 -51 -32 0 -5 -7 -8 -15 -8 -9 0 -18 -7 -21 -15 -3 -8 -14 -17
-25 -20 -22 -7 -26 -25 -5 -25 23 0 7 -38 -20 -44 -14 -4 -21 -11 -18 -20 3
-8 -8 -19 -28 -29 -18 -9 -27 -17 -19 -17 9 0 6 -7 -10 -21 -19 -17 -21 -22
-9 -29 8 -6 22 -10 31 -10 26 0 17 -46 -14 -71 -16 -11 -26 -24 -23 -26 3 -3
1 -14 -5 -25 -6 -11 -12 -28 -14 -40 -7 -33 -145 -190 -145 -164 0 5 -9 -1
-62 -46 -11 -10 -29 -20 -39 -23 -11 -4 -19 -10 -19 -14 0 -3 -8 -7 -17 -8
-10 0 -45 -9 -78 -20 -33 -10 -81 -19 -107 -18 -27 0 -48 -4 -48 -8 0 -5 -4
-6 -10 -2 -5 3 -27 7 -50 10 -22 2 -49 7 -60 10 -20 6 -20 2 -20 -779 l0 -786
1639 0 1640 0 35 21 c31 18 51 25 78 28 4 1 12 10 18 22 13 24 5 73 -11 63 -6
-3 -13 3 -16 15 -3 12 -10 21 -15 21 -6 0 -8 7 -4 15 3 10 -1 15 -12 15 -15 0
-15 2 -2 11 11 7 12 12 3 15 -7 3 -9 12 -6 20 5 13 7 13 14 2 8 -11 10 -11 18
1 7 10 13 11 31 1 18 -10 24 -9 31 1 6 10 9 11 9 2 0 -19 13 -16 38 7 12 11
27 20 34 20 7 0 22 7 33 16 18 13 18 17 5 38 -31 50 -95 125 -107 125 -11 1
-26 31 -29 56 0 6 -8 28 -18 50 -12 25 -19 70 -21 121 -1 45 -6 87 -10 94 -6
9 -4 11 5 5 10 -6 12 -4 6 10 -8 21 24 165 37 165 5 0 6 4 2 9 -3 5 -1 12 5
16 18 11 11 43 -16 72 -18 19 -24 36 -23 58 2 17 -5 42 -14 55 -15 22 -16 25
-2 28 8 2 15 14 15 27 0 24 1 24 35 9 32 -13 36 -13 41 1 4 8 4 21 1 28 -3 7
9 21 25 30 28 16 30 16 24 1 -11 -28 32 6 52 41 9 17 20 32 25 33 4 2 7 10 7
18 0 8 5 14 11 14 5 0 8 4 5 9 -3 4 3 19 14 31 24 28 24 26 0 58 -23 28 -13
43 24 35 21 -4 21 -4 2 11 -17 14 -17 16 -3 16 19 0 95 50 118 77 8 10 21 35
28 55 10 32 10 41 -3 60 -9 12 -16 33 -16 45 0 13 -6 23 -14 23 -17 0 -31 18
-21 28 3 3 10 0 15 -8 6 -9 10 -10 10 -3 0 6 9 9 22 5 14 -3 19 -2 14 6 -4 7
-2 12 3 12 6 0 11 4 11 9 0 5 5 22 12 38 15 37 16 45 6 66 -6 11 -5 17 3 17 7
0 10 3 7 6 -3 3 0 27 7 54 7 27 10 51 7 55 -3 3 -6 41 -7 83 0 43 -5 84 -10
92 -6 8 -11 26 -11 40 -1 14 -3 25 -4 25 -1 0 -3 9 -4 20 -2 11 -9 40 -16 65
-7 25 -13 57 -14 72 -1 15 -12 36 -24 46 -12 11 -19 22 -15 26 3 3 1 6 -6 6
-7 0 -9 5 -6 10 3 6 1 10 -6 10 -8 0 -10 16 -5 55 5 52 -3 75 -33 87 -5 1 -22
24 -38 50 -17 26 -33 45 -36 41 -4 -3 -9 2 -13 11 -3 9 -11 16 -18 16 -6 0
-19 14 -28 30 -10 17 -21 30 -25 29 -21 -4 -32 2 -27 15 3 7 -2 20 -10 29 -9
9 -16 21 -16 27 0 17 -23 37 -37 33 -7 -3 -26 10 -44 26 -18 17 -37 31 -43 31
-15 0 -50 48 -54 74 -1 12 -2 32 -1 46 2 40 1 41 -6 120 -4 41 -7 97 -6 123 0
26 -4 45 -8 42 -5 -3 -11 2 -15 10 -3 8 -1 15 4 15 6 0 10 18 10 40 0 28 5 43
16 47 11 4 12 8 4 13 -7 4 -12 48 -15 115 -2 70 -7 110 -15 115 -9 5 -9 9 -1
14 12 8 15 46 3 46 -7 0 -24 24 -68 99 -22 37 -43 44 -94 31z"/>
</g>
</svg>
